<?xml version="1.0" encoding="iso-8859-1"?>
<!-- Uploaded to: SVG Repo, www.svgrepo.com, Generator: SVG Repo Mixer Tools -->
<!DOCTYPE svg PUBLIC "-//W3C//DTD SVG 1.1//EN" "http://www.w3.org/Graphics/SVG/1.1/DTD/svg11.dtd">
<svg fill="#000000" version="1.1" id="Capa_1" xmlns="http://www.w3.org/2000/svg"
     xmlns:xlink="http://www.w3.org/1999/xlink"
     width="800px" height="800px" viewBox="0 0 488.611 488.611"
     xml:space="preserve">
<g>
	<g>
		<path d="M376.217,221.856l-5.654,3.14l-11.555,6.415c0.562-4.337,0.865-8.748,0.865-13.227c0-0.721-0.016-1.438-0.031-2.154
			l40.357-26.896l88.412,29.895l-86.07-48.316l-3.291-1.85l-4.777,2.227l-38.799,18.071c-4.783-16.18-13.469-30.834-25.047-43.023
			l67.797-45.185l90.021,68.683L404.77,82.941l-3.979-4.124l-6.422,2.991l-91.812,42.765c-17.104-9.38-37.006-14.762-58.252-14.762
			c-21.246,0-41.148,5.382-58.252,14.762l-91.81-42.766l-6.421-2.991l-3.979,4.124L0.166,169.636l90.021-68.683l67.797,45.185
			c-11.577,12.189-20.263,26.845-25.047,43.024L94.139,171.09l-4.776-2.227l-3.293,1.85L0,219.029l88.412-29.895l40.357,26.896
			c-0.017,0.717-0.03,1.434-0.03,2.154c0,4.479,0.301,8.89,0.864,13.227l-11.555-6.415l-5.654-3.14l-3.824,3.362l-71.05,62.467
			l75.338-45.521l25.969,20.345c7.648,15.979,19.301,29.903,33.766,40.651l-8.681,0.024l-7.301,0.021l-1.874,4.822l-39.589,101.768
			l51.438-87.473l26.616,8.521c11.853,14.236,30.33,23.396,51.103,23.396s39.25-9.16,51.104-23.396l26.614-8.521l51.439,87.473
			l-39.59-101.768L332,303.205l-7.303-0.021l-8.68-0.024c14.465-10.748,26.117-24.674,33.766-40.651l25.969-20.345l75.338,45.521
			l-71.051-62.467L376.217,221.856z M244.306,327.943c-20.63,0-37.355-16.877-37.355-37.695c0-20.819,16.725-37.696,37.355-37.696
			c20.629,0,37.355,16.876,37.355,37.694C281.661,311.065,264.936,327.943,244.306,327.943z"/>
        <path d="M248.979,264.334c-3.799,3.834-1.826,12.039,4.402,18.326c6.23,6.287,14.361,8.275,18.16,4.442
			c3.799-3.834,1.827-12.039-4.402-18.325C260.909,262.49,252.779,260.5,248.979,264.334z"/>
	</g>
</g>
</svg>